<mxfile host="65bd71144e" modified="2021-03-11T09:13:24.150Z" agent="5.0 (Windows NT 10.0; Win64; x64) AppleWebKit/537.36 (KHTML, like Gecko) Code/1.54.1 Chrome/87.0.4280.141 Electron/11.3.0 Safari/537.36" version="14.2.4" etag="XK0wMajvoERc4Xp0N87y" type="embed">
    <diagram id="j_Ob04jOFzgvroVb4lMc" name="Page-1">
        <mxGraphModel dx="1118" dy="647" grid="1" gridSize="10" guides="1" tooltips="1" connect="1" arrows="1" fold="1" page="1" pageScale="1" pageWidth="827" pageHeight="1169" background="#EEEEEE" math="0" shadow="0">
            <root>
                <mxCell id="0"/>
                <mxCell id="1" parent="0"/>
                <mxCell id="2" value="" style="rounded=0;whiteSpace=wrap;html=1;sketch=0;strokeColor=#909090;fontColor=#1A1A1A;fillColor=#FFFFFF;" vertex="1" parent="1">
                    <mxGeometry x="40" y="50" width="120" height="210" as="geometry"/>
                </mxCell>
                <mxCell id="3" value="线程A" style="rounded=0;whiteSpace=wrap;html=1;sketch=0;strokeColor=#909090;fontColor=#1A1A1A;fillColor=#FF9933;" vertex="1" parent="1">
                    <mxGeometry x="40" y="70" width="120" height="60" as="geometry"/>
                </mxCell>
                <mxCell id="4" value="线程B" style="rounded=0;whiteSpace=wrap;html=1;sketch=0;strokeColor=#909090;fillColor=#FF9933;fontColor=#1A1A1A;" vertex="1" parent="1">
                    <mxGeometry x="40" y="180" width="120" height="60" as="geometry"/>
                </mxCell>
                <mxCell id="5" value="虚拟节点(-1)" style="rounded=0;whiteSpace=wrap;html=1;sketch=0;strokeColor=#909090;fillColor=#FF9933;fontColor=#1A1A1A;" vertex="1" parent="1">
                    <mxGeometry x="240" y="120" width="120" height="60" as="geometry"/>
                </mxCell>
                <mxCell id="6" value="线程C(-1)" style="rounded=0;whiteSpace=wrap;html=1;sketch=0;strokeColor=#909090;fillColor=#FF9933;fontColor=#1A1A1A;" vertex="1" parent="1">
                    <mxGeometry x="420" y="120" width="120" height="60" as="geometry"/>
                </mxCell>
                <mxCell id="7" value="线程D(0)" style="rounded=0;whiteSpace=wrap;html=1;sketch=0;strokeColor=#909090;fillColor=#FF9933;fontColor=#1A1A1A;" vertex="1" parent="1">
                    <mxGeometry x="610" y="120" width="120" height="60" as="geometry"/>
                </mxCell>
                <mxCell id="8" value="" style="endArrow=classic;startArrow=classic;html=1;strokeColor=#182E3E;fontColor=#1A1A1A;exitX=1;exitY=0.5;exitDx=0;exitDy=0;entryX=0;entryY=0.5;entryDx=0;entryDy=0;" edge="1" parent="1" source="5" target="6">
                    <mxGeometry width="50" height="50" relative="1" as="geometry">
                        <mxPoint x="390" y="300" as="sourcePoint"/>
                        <mxPoint x="440" y="250" as="targetPoint"/>
                    </mxGeometry>
                </mxCell>
                <mxCell id="9" value="" style="endArrow=classic;startArrow=classic;html=1;strokeColor=#182E3E;fontColor=#1A1A1A;exitX=1;exitY=0.5;exitDx=0;exitDy=0;entryX=0;entryY=0.5;entryDx=0;entryDy=0;" edge="1" parent="1" source="6" target="7">
                    <mxGeometry width="50" height="50" relative="1" as="geometry">
                        <mxPoint x="570" y="290" as="sourcePoint"/>
                        <mxPoint x="620" y="240" as="targetPoint"/>
                    </mxGeometry>
                </mxCell>
                <mxCell id="10" value="状态1" style="text;html=1;strokeColor=none;fillColor=none;align=center;verticalAlign=middle;whiteSpace=wrap;rounded=0;sketch=0;fontColor=#1A1A1A;" vertex="1" parent="1">
                    <mxGeometry x="340" y="250" width="130" height="20" as="geometry"/>
                </mxCell>
                <mxCell id="11" value="执行线程" style="text;html=1;strokeColor=none;fillColor=none;align=center;verticalAlign=middle;whiteSpace=wrap;rounded=0;sketch=0;fontColor=#1A1A1A;" vertex="1" parent="1">
                    <mxGeometry x="80" y="150" width="60" height="20" as="geometry"/>
                </mxCell>
                <mxCell id="12" value="" style="rounded=0;whiteSpace=wrap;html=1;sketch=0;strokeColor=#909090;fontColor=#1A1A1A;fillColor=#FFFFFF;" vertex="1" parent="1">
                    <mxGeometry x="40" y="330" width="120" height="210" as="geometry"/>
                </mxCell>
                <mxCell id="13" value="线程B" style="rounded=0;whiteSpace=wrap;html=1;sketch=0;strokeColor=#909090;fontColor=#1A1A1A;fillColor=#FF9933;" vertex="1" parent="1">
                    <mxGeometry x="40" y="350" width="120" height="60" as="geometry"/>
                </mxCell>
                <mxCell id="14" value="线程C" style="rounded=0;whiteSpace=wrap;html=1;sketch=0;strokeColor=#909090;fillColor=#FF9933;fontColor=#1A1A1A;" vertex="1" parent="1">
                    <mxGeometry x="40" y="460" width="120" height="60" as="geometry"/>
                </mxCell>
                <mxCell id="15" value="执行线程" style="text;html=1;strokeColor=none;fillColor=none;align=center;verticalAlign=middle;whiteSpace=wrap;rounded=0;sketch=0;fontColor=#1A1A1A;" vertex="1" parent="1">
                    <mxGeometry x="70" y="430" width="60" height="20" as="geometry"/>
                </mxCell>
                <mxCell id="16" value="线程C(-1)" style="rounded=0;whiteSpace=wrap;html=1;sketch=0;strokeColor=#909090;fillColor=#FF9933;fontColor=#1A1A1A;" vertex="1" parent="1">
                    <mxGeometry x="230" y="405" width="120" height="60" as="geometry"/>
                </mxCell>
                <mxCell id="18" value="线程D(0)" style="rounded=0;whiteSpace=wrap;html=1;sketch=0;strokeColor=#909090;fillColor=#FF9933;fontColor=#1A1A1A;" vertex="1" parent="1">
                    <mxGeometry x="410" y="405" width="120" height="60" as="geometry"/>
                </mxCell>
                <mxCell id="19" value="" style="endArrow=classic;startArrow=classic;html=1;strokeColor=#182E3E;fontColor=#1A1A1A;exitX=1;exitY=0.5;exitDx=0;exitDy=0;entryX=0;entryY=0.5;entryDx=0;entryDy=0;" edge="1" parent="1" source="16" target="18">
                    <mxGeometry width="50" height="50" relative="1" as="geometry">
                        <mxPoint x="400" y="410" as="sourcePoint"/>
                        <mxPoint x="450" y="360" as="targetPoint"/>
                    </mxGeometry>
                </mxCell>
                <mxCell id="20" value="" style="rounded=0;whiteSpace=wrap;html=1;sketch=0;strokeColor=#909090;fillColor=#FF9933;fontColor=#1A1A1A;" vertex="1" parent="1">
                    <mxGeometry x="600" y="405" width="120" height="60" as="geometry"/>
                </mxCell>
                <mxCell id="21" value="" style="endArrow=classic;startArrow=classic;html=1;strokeColor=#182E3E;fontColor=#1A1A1A;exitX=1;exitY=0.5;exitDx=0;exitDy=0;entryX=0;entryY=0.5;entryDx=0;entryDy=0;" edge="1" parent="1" source="18" target="20">
                    <mxGeometry width="50" height="50" relative="1" as="geometry">
                        <mxPoint x="580" y="550" as="sourcePoint"/>
                        <mxPoint x="630" y="500" as="targetPoint"/>
                    </mxGeometry>
                </mxCell>
                <mxCell id="22" value="状态2" style="text;html=1;strokeColor=none;fillColor=none;align=center;verticalAlign=middle;whiteSpace=wrap;rounded=0;sketch=0;fontColor=#1A1A1A;" vertex="1" parent="1">
                    <mxGeometry x="340" y="500" width="130" height="20" as="geometry"/>
                </mxCell>
            </root>
        </mxGraphModel>
    </diagram>
</mxfile>